HIERARCHY
ROOT Hips
{
	OFFSET 0.000000 0.000000 0.000000
	CHANNELS 6 Xposition Yposition Zposition Zrotation Yrotation Xrotation 
	JOINT LeftUpLeg_virtual
	{
		OFFSET 0.000000 0.000000 0.000000
		CHANNELS 3 Zrotation Yrotation Xrotation
		JOINT LeftUpLeg
		{
			OFFSET 8.479694 -4.795517 -0.379053
			CHANNELS 3 Zrotation Yrotation Xrotation
			JOINT LeftLeg
			{
				OFFSET 0.485052 -32.551468 0.112863
				CHANNELS 3 Zrotation Yrotation Xrotation
				JOINT LeftFoot
				{
					OFFSET 0.438033 -32.635670 -3.012641
					CHANNELS 3 Zrotation Yrotation Xrotation
					JOINT LeftToeBase
					{
						OFFSET 0.970169 -13.225353 11.864223
						CHANNELS 3 Zrotation Yrotation Xrotation
						End Site
						{
							OFFSET 0.000000 0.000000 0.000000
						}
					}
				}
			}
		}
	}
	JOINT RightUpLeg_virtual
	{
		OFFSET 0.000000 0.000000 0.000000
		CHANNELS 3 Zrotation Yrotation Xrotation
		JOINT RightUpLeg
		{
			OFFSET -8.479694 -4.795517 -0.379053
			CHANNELS 3 Zrotation Yrotation Xrotation
			JOINT RightLeg
			{
				OFFSET -0.484100 -32.551483 0.112903
				CHANNELS 3 Zrotation Yrotation Xrotation
				JOINT RightFoot
				{
					OFFSET -0.438985 -32.635651 -3.012681
					CHANNELS 3 Zrotation Yrotation Xrotation
					JOINT RightToeBase
					{
						OFFSET -0.970169 -13.225354 11.864223
						CHANNELS 3 Zrotation Yrotation Xrotation
						End Site
						{
							OFFSET 0.000000 0.000000 0.000000
						}
					}
				}
			}
		}
	}
	JOINT Spine_virtual
	{
		OFFSET 0.000000 0.000000 0.000000
		CHANNELS 3 Zrotation Yrotation Xrotation
		JOINT Spine
		{
			OFFSET 0.000000 7.722015 1.166203
			CHANNELS 3 Zrotation Yrotation Xrotation
			JOINT Spine1
			{
				OFFSET 0.000000 12.024086 0.248766
				CHANNELS 3 Zrotation Yrotation Xrotation
				JOINT Spine2
				{
					OFFSET -0.000000 11.503036 -0.491240
					CHANNELS 3 Zrotation Yrotation Xrotation
					JOINT Neck_virtual
					{
						OFFSET 0.000000 0.000000 0.000000
						CHANNELS 3 Zrotation Yrotation Xrotation
						JOINT Neck
						{
							OFFSET 0.000000 18.430687 -3.123054
							CHANNELS 3 Zrotation Yrotation Xrotation
							JOINT Head
							{
								OFFSET -0.000000 9.051071 1.034021
								CHANNELS 3 Zrotation Yrotation Xrotation
								End Site
								{
									OFFSET 0.000000 0.000000 0.000000
								}
							}
						}
					}
					JOINT LeftShoulder_virtual
					{
						OFFSET 0.000000 0.000000 0.000000
						CHANNELS 3 Zrotation Yrotation Xrotation
						JOINT LeftShoulder
						{
							OFFSET 6.197824 13.665230 -4.064723
							CHANNELS 3 Zrotation Yrotation Xrotation
							JOINT LeftArm
							{
								OFFSET 7.778132 -0.187073 -1.709282
								CHANNELS 3 Zrotation Yrotation Xrotation
								JOINT LeftForeArm
								{
									OFFSET 21.954697 0.000000 -2.041093
									CHANNELS 3 Zrotation Yrotation Xrotation
									JOINT LeftHand
									{
										OFFSET 22.992908 0.000000 -0.870901
										CHANNELS 3 Zrotation Yrotation Xrotation
										End Site
										{
											OFFSET 0.000000 0.000000 0.000000
										}
									}
								}
							}
						}
					}
					JOINT RightShoulder_virtual
					{
						OFFSET 0.000000 0.000000 0.000000
						CHANNELS 3 Zrotation Yrotation Xrotation
						JOINT RightShoulder
						{
							OFFSET -6.197824 13.665230 -4.064723
							CHANNELS 3 Zrotation Yrotation Xrotation
							JOINT RightArm
							{
								OFFSET -7.778132 -0.187073 -1.709282
								CHANNELS 3 Zrotation Yrotation Xrotation
								JOINT RightForeArm
								{
									OFFSET -21.954697 0.000000 -2.041093
									CHANNELS 3 Zrotation Yrotation Xrotation
									JOINT RightHand
									{
										OFFSET -22.992908 0.000000 -0.870901
										CHANNELS 3 Zrotation Yrotation Xrotation
										End Site
										{
											OFFSET 0.000000 0.000000 0.000000
										}
									}
								}
							}
						}
					}
				}
			}
		}
	}
}
MOTION
Frames: 13
Frame Time: 0.033333
9.766067 78.804924 -4.070784 -179.963463 1.674471 -179.959693 -2.380295 -0.943977 10.953672 0.355764 -1.650345 -30.479863 7.581338 2.598776 29.655309 -6.435277 -8.136726 -16.439879 0.000000 0.000000 0.000000 -0.204932 -0.980682 11.448255 1.336207 4.195042 -31.971733 -1.374942 2.802833 33.225886 8.480928 2.931541 -15.338317 0.000000 0.000000 0.000000 4.183984 1.106485 -3.463868 -3.401090 -1.545050 -1.409401 -0.409941 -1.721319 10.265869 0.013215 0.038494 0.010891 -0.870558 -0.380681 11.667473 1.100775 -2.102267 -5.582647 0.000000 0.000000 0.000000 0.268664 0.344254 8.807806 -11.033957 -9.291502 2.342569 -61.063674 -4.275845 8.908295 0.103012 -21.326873 0.621208 0.000000 0.000000 0.000000 -3.196828 1.732321 8.350307 23.825127 1.928893 7.762405 50.564263 8.784644 11.162811 -3.783773 21.081903 -2.862079 0.000000 0.000000 0.000000 
9.736900 78.817673 -4.019752 179.896500 1.665617 -179.886651 -2.224730 -1.266142 11.038923 0.493470 -2.173402 -30.299238 6.917282 2.093813 29.736222 -7.048669 -9.026237 -16.914559 0.000000 0.000000 0.000000 -0.495391 -0.705562 11.418147 1.563385 3.990533 -31.948244 -1.419511 2.451381 33.534111 8.265323 2.619214 -14.818159 0.000000 0.000000 0.000000 4.076248 1.164983 -3.547323 -3.452631 -1.562533 -1.443396 -0.440198 -1.740699 10.300479 0.015005 0.008040 0.030517 -0.840995 -0.314283 11.648233 1.092486 -2.101701 -5.564198 0.000000 0.000000 0.000000 0.303749 0.364120 8.755531 -11.225038 -9.329960 2.360717 -61.063462 -4.360670 9.004462 0.119331 -21.269335 0.624000 0.000000 0.000000 0.000000 -3.174321 1.760031 8.341608 23.821535 1.936180 7.741282 50.491760 8.763831 11.113130 -3.691968 21.014576 -2.872106 0.000000 0.000000 0.000000 
9.717587 78.810577 -3.964001 179.959393 1.688637 -179.914901 -2.164592 -1.273987 10.913216 0.468378 -2.149338 -30.173669 6.899490 2.106971 29.734078 -7.043353 -9.019015 -16.937249 0.000000 0.000000 0.000000 -0.268770 -0.786828 11.320200 1.406472 3.864816 -31.927665 -1.422540 2.488078 33.617112 8.407531 2.774112 -14.797233 0.000000 0.000000 0.000000 4.091790 1.174411 -3.575613 -3.415547 -1.569363 -1.395440 -0.424728 -1.749721 10.270072 0.016544 0.008228 0.033614 -0.865527 -0.394595 11.707529 1.119334 -2.149957 -5.601193 0.000000 0.000000 0.000000 0.242960 0.324345 8.885211 -11.218231 -9.431152 2.318011 -61.291693 -4.413505 9.039457 0.114432 -21.368020 0.620795 0.000000 0.000000 0.000000 -3.201032 1.743497 8.407530 23.902845 1.898797 7.753502 50.565943 8.719383 11.072039 -3.817813 21.130234 -2.879672 0.000000 0.000000 0.000000 
9.712417 78.800041 -3.910462 179.972698 1.894267 -179.890531 -2.124989 -1.200442 10.748462 0.407533 -2.100992 -30.055903 6.948307 2.135801 29.740324 -7.014876 -8.960015 -16.913326 0.000000 0.000000 0.000000 -0.253831 -0.775774 11.181632 1.431926 3.651320 -31.904128 -1.376088 2.497007 33.656273 8.559413 2.950740 -14.728167 0.000000 0.000000 0.000000 4.090901 1.226558 -3.673496 -3.406188 -1.442337 -1.412168 -0.416410 -1.651249 10.370316 0.026816 -0.064391 -0.007502 -0.870245 -0.379649 11.676152 1.096842 -2.189517 -5.677671 0.000000 0.000000 0.000000 0.249552 0.275891 8.899937 -11.255579 -9.470809 2.290069 -61.379673 -4.318896 8.988818 0.109585 -21.632328 0.633696 0.000000 0.000000 0.000000 -3.207303 1.672292 8.422844 23.971956 1.864901 7.781135 50.717290 8.677303 11.014037 -3.903151 21.420267 -2.966828 0.000000 0.000000 0.000000 
9.715252 78.795921 -3.847960 179.860437 2.150561 -179.894178 -2.209686 -1.230610 10.631801 0.291779 -1.887960 -29.966424 7.030280 2.156297 29.779287 -7.049362 -8.985019 -16.888727 0.000000 0.000000 0.000000 -0.419320 -0.771632 11.076280 1.521396 3.531549 -31.871551 -1.281759 2.513102 33.646642 8.648827 3.066583 -14.638905 0.000000 0.000000 0.000000 4.025839 1.152605 -3.727182 -3.446900 -1.399060 -1.397840 -0.461102 -1.800290 10.386628 0.032971 -0.046912 -0.020694 -0.873147 -0.379410 11.698924 1.062464 -2.221245 -5.734320 0.000000 0.000000 0.000000 0.233245 0.314882 8.927955 -11.306136 -9.400721 2.297811 -61.449702 -4.096951 8.858742 0.092600 -22.034146 0.621631 0.000000 0.000000 0.000000 -3.202788 1.720523 8.464708 24.068385 1.910677 7.796231 50.893952 8.699207 11.049982 -4.020608 21.797347 -3.068099 0.000000 0.000000 0.000000 
9.708788 78.805626 -3.771171 179.869343 2.516609 -179.900899 -2.155404 -1.238991 10.578180 0.243795 -1.696960 -29.922096 7.022310 2.183506 29.803534 -6.937657 -8.813885 -16.836353 0.000000 0.000000 0.000000 -0.293619 -0.913090 10.999003 1.425063 3.537146 -31.870014 -1.266944 2.651840 33.621507 8.835564 3.249120 -14.514200 0.000000 0.000000 0.000000 4.040875 0.972502 -3.721578 -3.429502 -1.461297 -1.390856 -0.477552 -1.691367 10.360307 0.017623 0.064096 0.040792 -0.866361 -0.306536 11.685016 0.999890 -2.239704 -5.776880 0.000000 0.000000 0.000000 0.242408 0.318771 8.879910 -11.366590 -9.295502 2.300104 -61.346935 -3.748878 8.604365 0.072317 -22.410083 0.641357 0.000000 0.000000 0.000000 -3.190179 1.728878 8.467806 24.158220 1.942424 7.800030 51.030543 8.748209 11.211715 -4.095478 22.206997 -3.117883 0.000000 0.000000 0.000000 
9.684335 78.825417 -3.692310 179.879739 2.871610 -179.895981 -2.151984 -1.242562 10.560405 0.191310 -1.506204 -29.935391 7.007006 2.172072 29.797281 -6.833078 -8.685988 -16.780894 0.000000 0.000000 0.000000 -0.271241 -0.975037 10.966349 1.391122 3.575466 -31.889791 -1.255038 2.777358 33.534989 8.955124 3.356648 -14.324720 0.000000 0.000000 0.000000 4.014453 0.906987 -3.657153 -3.398856 -1.455787 -1.447375 -0.491972 -1.683932 10.396712 0.024941 0.066508 0.016471 -0.916808 -0.356276 11.639304 0.956929 -2.262004 -5.857132 0.000000 0.000000 0.000000 0.217422 0.334972 8.932378 -11.365896 -9.244465 2.303606 -61.061256 -3.451772 8.354874 -0.022754 -22.751239 0.696120 0.000000 0.000000 0.000000 -3.233512 1.754887 8.474652 24.223203 2.038869 7.962358 51.091147 8.807564 11.382344 -4.210541 22.570413 -3.208613 0.000000 0.000000 0.000000 
9.640332 78.849342 -3.631690 179.845288 3.122977 -179.906227 -2.199076 -1.262322 10.580047 0.133261 -1.362203 -29.957305 6.982304 2.108309 29.746369 -6.683703 -8.536966 -16.724471 0.000000 0.000000 0.000000 -0.285065 -1.037062 10.953464 1.353257 3.647107 -31.931527 -1.252512 2.838054 33.487786 9.091398 3.470894 -14.137387 0.000000 0.000000 0.000000 3.955242 0.873753 -3.614975 -3.376505 -1.450686 -1.404831 -0.516450 -1.708495 10.338776 0.031583 0.035680 -0.022659 -0.946231 -0.306555 11.745322 0.887557 -2.219860 -5.839431 0.000000 0.000000 0.000000 0.218087 0.393721 9.016600 -11.393292 -9.236537 2.310303 -60.662277 -3.247993 8.228523 -0.102470 -23.008775 0.688520 0.000000 0.000000 0.000000 -3.244733 1.785775 8.545880 24.241714 2.136640 7.990271 51.026096 8.774870 11.744687 -4.299283 22.885780 -3.276031 0.000000 0.000000 0.000000 
9.583755 78.872566 -3.564161 179.893399 3.386361 -179.914191 -2.187074 -1.270217 10.598413 0.087871 -1.248489 -29.967595 6.966899 2.043165 29.668453 -6.498901 -8.410329 -16.707717 0.000000 0.000000 0.000000 -0.112742 -1.110241 10.909731 1.225295 3.572574 -32.005184 -1.258396 2.969975 33.489353 9.260683 3.587116 -13.970306 0.000000 0.000000 0.000000 3.950925 0.877072 -3.521802 -3.315491 -1.478368 -1.462092 -0.543626 -1.691981 10.339554 -0.002231 0.054780 -0.024156 -0.947537 -0.284430 11.758747 0.921859 -2.246313 -5.829484 0.000000 0.000000 0.000000 0.218438 0.364266 9.038353 -11.449642 -9.259579 2.282671 -60.280811 -3.100463 8.147665 -0.244623 -23.217661 0.783616 0.000000 0.000000 0.000000 -3.235209 1.741651 8.558650 24.196276 2.302695 8.001806 50.869391 8.741735 12.013677 -4.360106 23.121012 -3.281311 0.000000 0.000000 0.000000 
9.504778 78.889885 -3.500941 179.818609 3.380602 -179.911363 -2.256960 -1.621808 10.601016 -0.007816 -1.146745 -29.960085 6.920074 2.061364 29.576652 -6.220514 -8.231074 -16.735189 0.000000 0.000000 0.000000 -0.032442 -1.389718 10.828503 1.051200 3.530772 -32.110953 -1.276912 3.134523 33.570950 9.449998 3.707864 -13.829652 0.000000 0.000000 0.000000 3.857662 0.782859 -3.442529 -3.297718 -1.548102 -1.590177 -0.609659 -1.718727 10.395601 0.002556 0.018444 0.037101 -0.958578 -0.239154 11.711132 0.973329 -2.243167 -5.792711 0.000000 0.000000 0.000000 0.201682 0.376213 9.024309 -11.554360 -9.204440 2.255303 -59.987489 -2.906777 8.157424 -0.378050 -23.295723 0.893804 0.000000 0.000000 0.000000 -3.257117 1.706800 8.536922 24.148438 2.498059 8.072920 50.629023 8.715887 12.092616 -4.427726 23.367411 -3.429691 0.000000 0.000000 0.000000 
9.377428 78.895668 -3.449747 -179.973149 3.547205 -179.947044 -2.160768 -1.577144 10.586597 0.032557 -1.197804 -29.956858 6.832929 1.997917 29.570484 -5.853245 -8.013577 -16.773252 0.000000 0.000000 0.000000 0.235370 -1.375966 10.763694 0.981118 3.431717 -32.198004 -1.276054 3.260397 33.773489 9.595032 3.741709 -13.739555 0.000000 0.000000 0.000000 3.962285 0.798131 -3.420656 -3.149495 -1.598395 -1.550174 -0.606978 -1.721631 10.332492 -0.030414 0.186915 0.011948 -1.000302 -0.342072 11.772719 1.079803 -2.212430 -5.740777 0.000000 0.000000 0.000000 0.134689 0.358808 9.147547 -11.701557 -9.255456 2.253783 -59.801632 -2.703839 8.290469 -0.416620 -23.338224 0.995021 0.000000 0.000000 0.000000 -3.306474 1.631489 8.535374 24.041646 2.617013 8.095467 50.502685 8.586276 12.050257 -4.481400 23.642191 -3.281648 0.000000 0.000000 0.000000 
9.170796 78.897293 -3.413048 179.942905 3.674657 -179.935432 -2.192936 -1.564601 10.575554 -0.237155 -0.953221 -29.987874 6.737092 1.984057 29.514002 -5.651917 -8.076375 -16.737138 0.000000 0.000000 0.000000 0.022189 -1.271652 10.740040 0.878526 3.732944 -32.290204 -1.330488 3.333506 33.801865 9.575491 3.679404 -13.617912 0.000000 0.000000 0.000000 3.908336 0.929477 -3.488399 -3.089578 -1.632915 -1.508257 -0.734159 -1.688528 10.366905 0.011526 0.057147 -0.021472 -0.967052 -0.061934 11.761208 1.242672 -2.317018 -5.659865 0.000000 0.000000 0.000000 0.151075 0.243713 9.097429 -11.882531 -8.959373 2.136558 -59.733003 -2.356637 8.429557 -0.475346 -23.264014 1.201827 0.000000 0.000000 0.000000 -3.335883 1.626942 8.489935 23.965141 2.788097 8.184407 50.401301 8.504105 11.934355 -4.567587 23.924317 -3.402482 0.000000 0.000000 0.000000 
8.894305 78.910706 -3.406227 179.954379 3.812527 -179.931334 -2.168251 -1.412335 10.588729 -0.543334 -0.644826 -30.064638 6.643482 1.945293 29.586689 -5.522070 -8.265204 -16.640981 0.000000 0.000000 0.000000 0.384408 -1.356957 10.763045 0.276560 3.811238 -32.418581 -1.321512 3.511277 33.952239 9.883992 3.681052 -13.777041 0.000000 0.000000 0.000000 3.932346 1.001766 -3.447532 -3.059471 -1.759721 -1.656548 -0.668592 -1.783128 10.374112 -0.004051 0.135308 -0.031872 -1.042144 -0.387827 11.717010 1.358140 -2.197276 -5.596651 0.000000 0.000000 0.000000 0.053527 0.312261 9.095935 -12.022745 -8.729797 2.111592 -59.746246 -2.109299 8.835273 -0.337582 -23.274278 1.416826 0.000000 0.000000 0.000000 -3.404775 1.633016 8.464901 23.897053 2.929157 8.249187 50.406526 8.410604 11.653099 -4.597071 24.165547 -3.377156 0.000000 0.000000 0.000000 
